<svg width="25" height="19" viewBox="0 0 25 19" fill="none" xmlns="http://www.w3.org/2000/svg">
<path d="M12.5 10.6875C13.2367 10.6875 13.9432 10.4373 14.4642 9.99188C14.9851 9.54648 15.2778 8.94239 15.2778 8.3125C15.2778 7.68261 14.9851 7.07852 14.4642 6.63312C13.9432 6.18772 13.2367 5.9375 12.5 5.9375C12.4566 5.9375 12.4184 5.94641 12.3763 5.94826C12.5101 6.26344 12.5361 6.60472 12.451 6.93206C12.366 7.25939 12.1736 7.55921 11.8962 7.79631C11.6189 8.03341 11.2683 8.19796 10.8854 8.27066C10.5026 8.34336 10.1034 8.32118 9.73478 8.20674C9.73478 8.24385 9.7222 8.2765 9.7222 8.3125C9.7222 8.62439 9.79405 8.93323 9.93364 9.22137C10.0732 9.50952 10.2778 9.77134 10.5358 9.99188C11.0567 10.4373 11.7633 10.6875 12.5 10.6875ZM24.8489 8.9582C22.4952 5.03166 17.8355 2.375 12.5 2.375C7.16447 2.375 2.50345 5.03352 0.151018 8.95857C0.0517306 9.1265 0 9.31202 0 9.50019C0 9.68835 0.0517306 9.87387 0.151018 10.0418C2.50475 13.9683 7.16447 16.625 12.5 16.625C17.8355 16.625 22.4965 13.9665 24.8489 10.0414C24.9482 9.8735 24.9999 9.68798 24.9999 9.49981C24.9999 9.31165 24.9482 9.12613 24.8489 8.9582ZM12.5 3.5625C13.5988 3.5625 14.6729 3.84108 15.5865 4.36302C16.5001 4.88496 17.2122 5.6268 17.6326 6.49475C18.0531 7.3627 18.1631 8.31777 17.9488 9.23918C17.7344 10.1606 17.2053 11.007 16.4283 11.6713C15.6514 12.3356 14.6615 12.788 13.5838 12.9712C12.5061 13.1545 11.3891 13.0604 10.374 12.7009C9.35881 12.3414 8.49115 11.7326 7.8807 10.9515C7.27025 10.1703 6.94442 9.25196 6.94442 8.3125C6.94603 7.05314 7.53186 5.84576 8.57338 4.95526C9.6149 4.06476 11.027 3.56388 12.5 3.5625ZM12.5 15.4375C7.84025 15.4375 3.58244 13.1623 1.38886 9.5C2.62256 7.42926 4.59549 5.74825 7.02168 4.70064C6.11586 5.70334 5.55553 6.94576 5.55553 8.3125C5.55553 9.88722 6.28718 11.3974 7.58951 12.5109C8.89185 13.6244 10.6582 14.25 12.5 14.25C14.3418 14.25 16.1081 13.6244 17.4104 12.5109C18.7128 11.3974 19.4444 9.88722 19.4444 8.3125C19.4444 6.94576 18.8841 5.70334 17.9783 4.70064C20.4045 5.74825 22.3774 7.42926 23.6111 9.5C21.4179 13.1623 17.1597 15.4375 12.5 15.4375Z" fill="#42D9C8"/>
</svg>
