<svg width="12" height="16" viewBox="0 0 12 16" fill="none" xmlns="http://www.w3.org/2000/svg">
<path d="M10.7988 9.14298H1.20116C0.136416 9.14298 -0.403454 10.3753 0.353863 11.0932L5.1527 15.6651C5.62134 16.1116 6.38241 16.1116 6.85104 15.6651L11.6499 11.0932C12.3997 10.3753 11.8636 9.14298 10.7988 9.14298ZM6 14.8579L1.20116 10.286H10.7988L6 14.8579ZM1.20116 6.85702H10.7988C11.8636 6.85702 12.4035 5.62473 11.6461 4.9068L6.8473 0.334859C6.37866 -0.11162 5.61759 -0.11162 5.14896 0.334859L0.350114 4.9068C-0.399705 5.62473 0.136416 6.85702 1.20116 6.85702ZM6 1.14209L10.7988 5.71403H1.20116L6 1.14209Z" fill="#42D9C8"/>
</svg>
