<svg width="176" height="158" viewBox="0 0 176 158" fill="none" xmlns="http://www.w3.org/2000/svg">
<path d="M172.047 115.437L111.959 14.1343C101.166 -4.08447 74.8344 -4.08447 64.0063 14.1343L3.95316 115.437C-7.08122 134 6.32503 157.512 27.9125 157.512H148.088C169.675 157.512 183.081 134 172.047 115.437ZM88 135.1C80.8844 135.1 75.1094 129.325 75.1094 122.209C75.1094 115.094 80.8844 109.319 88 109.319C95.1157 109.319 100.891 115.094 100.891 122.209C100.891 129.325 95.1157 135.1 88 135.1ZM101.234 53.0468L99.6532 90.3093C99.3782 96.7374 93.9469 101.722 87.5188 101.447C81.4688 101.206 76.6219 96.3593 76.3813 90.3093L74.8 53.0468C74.4219 45.7249 80.0594 39.503 87.3469 39.1249C94.6688 38.7468 100.891 44.3843 101.269 51.6718C101.269 52.153 101.269 52.5999 101.234 53.0468Z" fill="#FD4760"/>
</svg>
