<svg width="149" height="68" viewBox="0 0 149 68" fill="none" xmlns="http://www.w3.org/2000/svg">
<path d="M48.5233 29.5979H31.6506V36.9646H36.6616L48.5233 29.5979Z" fill="#42D9C8"/>
<path fill-rule="evenodd" clip-rule="evenodd" d="M23.6672 52.7746C16.7595 52.7746 11.3617 51.0556 7.47384 47.6179C3.62369 44.1423 1.69861 39.0046 1.69861 32.2046C1.69861 25.4423 3.66143 20.3423 7.58708 16.9046C11.5505 13.429 17.288 11.6912 24.7996 11.6912H46.3152V19.0579H25.4224C20.4775 19.0579 16.8161 20.0967 14.4381 22.1746C12.0978 24.2523 10.9277 27.5956 10.9277 32.2046C10.9277 36.5867 11.9657 39.8356 14.0418 41.9512C16.1178 44.029 19.1565 45.1623 23.1576 45.3512L31.6506 45.4079H39.4641V36.9646H36.6616L48.5233 29.5979V52.7746H23.6672Z" fill="#42D9C8"/>
<path d="M23.84 29.2281C25.4858 29.2281 26.82 27.8928 26.82 26.2456C26.82 24.5985 25.4858 23.2632 23.84 23.2632C22.1942 23.2632 20.86 24.5985 20.86 26.2456C20.86 27.8928 22.1942 29.2281 23.84 29.2281Z" fill="white"/>
<path d="M62.1509 30.4697C60.6311 30.4843 59.2255 30.2652 57.9338 29.8123C56.6597 29.3413 55.5447 28.672 54.5887 27.8044C53.6505 26.9365 52.9165 25.9056 52.3865 24.7117C51.8565 23.5177 51.5846 22.1961 51.5707 20.7467C51.5568 19.2973 51.8034 17.9706 52.3104 16.7668C52.8173 15.5629 53.5405 14.518 54.4796 13.6321C55.4188 12.7462 56.5298 12.0645 57.8127 11.5868C59.1132 11.0912 60.5411 10.8359 62.0966 10.8209C63.9562 10.8031 65.613 11.1003 67.0673 11.7127C68.5394 12.3249 69.7546 13.208 70.7136 14.362L66.6984 17.9708C66.1018 17.2965 65.4527 16.7927 64.7524 16.4594C64.0694 16.108 63.3083 15.9364 62.4679 15.9444C61.7706 15.9511 61.1365 16.0646 60.5667 16.2848C60.0142 16.5049 59.5437 16.8226 59.1543 17.2379C58.7649 17.6533 58.4657 18.1482 58.2566 18.7229C58.0475 19.2976 57.9465 19.9517 57.9535 20.6854C57.9603 21.3833 58.0737 22.0264 58.2939 22.6148C58.514 23.1854 58.8226 23.6746 59.2199 24.0823C59.6173 24.4901 60.0851 24.8078 60.6239 25.0352C61.18 25.2446 61.798 25.346 62.4775 25.3395C63.1927 25.3327 63.8888 25.2097 64.5659 24.9705C65.2429 24.7135 65.9629 24.286 66.7264 23.6882L70.3077 28.0023C69.1712 28.7828 67.8713 29.3858 66.4093 29.8114C64.9473 30.2371 63.5276 30.4565 62.1509 30.4697ZM64.8025 27.2499L64.7339 20.1103L70.2314 20.0574L70.3077 28.0023L64.8025 27.2499ZM81.7128 29.8524L81.6878 27.2489L81.2521 26.5551L81.2044 21.6164C81.1978 20.9006 80.969 20.357 80.5184 19.9855C80.0857 19.6139 79.3777 19.4328 78.3943 19.4422C77.7327 19.4485 77.0634 19.5623 76.3857 19.7836C75.7087 19.987 75.13 20.2699 74.6508 20.6324L72.6816 16.6516C73.5345 16.1066 74.5584 15.6852 75.754 15.3874C76.949 15.0896 78.1189 14.9352 79.2626 14.9242C81.7837 14.9 83.738 15.4449 85.1255 16.559C86.5309 17.673 87.2455 19.4556 87.2687 21.9071L87.3444 29.7983L81.7128 29.8524ZM77.5581 30.1607C76.3607 30.1723 75.357 29.9761 74.5489 29.5722C73.7401 29.1684 73.1268 28.6285 72.7096 27.9525C72.2912 27.2585 72.0784 26.4911 72.0701 25.6501C72.0612 24.7017 72.2948 23.8941 72.7716 23.2274C73.2478 22.5607 73.9761 22.0526 74.9559 21.7032C75.9542 21.3536 77.213 21.1715 78.7328 21.1569L81.7897 21.1276L81.8183 24.0532L79.7263 24.0733C79.0826 24.0795 78.6094 24.1914 78.3078 24.4091C78.0236 24.6087 77.8835 24.9142 77.8877 25.3258C77.8906 25.6658 78.0188 25.9508 78.2709 26.1811C78.5415 26.3932 78.9003 26.4972 79.3473 26.4929C79.7585 26.4889 80.1328 26.3779 80.4701 26.16C80.8259 25.9239 81.0816 25.5635 81.2378 25.0788L82.0328 26.8697C81.8105 27.9634 81.3272 28.7824 80.581 29.3264C79.8354 29.8704 78.8276 30.1485 77.5581 30.1607ZM109.237 14.6363C110.346 14.6257 111.341 14.8488 112.221 15.3056C113.12 15.7444 113.823 16.4445 114.333 17.406C114.861 18.3672 115.132 19.6173 115.147 21.1562L115.227 29.5306L109.166 29.5888L109.096 22.2612C109.087 21.3486 108.929 20.7059 108.622 20.333C108.314 19.9423 107.919 19.7492 107.436 19.7539C107.079 19.7573 106.757 19.8499 106.473 20.0315C106.189 20.2132 105.959 20.5018 105.784 20.8972C105.627 21.2745 105.551 21.7942 105.558 22.4562L105.626 29.6228L99.5654 29.681L99.495 22.3534C99.4861 21.4408 99.3371 20.798 99.0474 20.425C98.7572 20.0341 98.3531 19.8411 97.8346 19.8461C97.477 19.8495 97.1563 19.9421 96.8721 20.1238C96.5878 20.3055 96.3577 20.594 96.1831 20.9893C96.0257 21.3667 95.95 21.8864 95.9566 22.5484L96.0251 29.715L89.9638 29.7731L89.8232 15.0912L95.5895 15.0358L95.63 19.2498L94.4386 18.0802C94.9821 16.9655 95.7158 16.1352 96.6408 15.5895C97.5652 15.0258 98.5993 14.7385 99.7436 14.7275C101.031 14.7151 102.169 15.0442 103.159 15.7147C104.167 16.3672 104.848 17.4165 105.201 18.8627L103.348 18.5852C103.873 17.3633 104.642 16.4074 105.654 15.7177C106.684 15.0098 107.878 14.6494 109.237 14.6363ZM126.22 29.6935C124.432 29.7106 122.865 29.3946 121.517 28.7454C120.188 28.096 119.151 27.2023 118.407 26.064C117.663 24.908 117.284 23.6052 117.27 22.1559C117.256 20.6707 117.601 19.352 118.305 18.2C119.027 17.0477 120.011 16.1435 121.256 15.4873C122.52 14.8309 123.938 14.4952 125.511 14.4801C126.959 14.4662 128.294 14.7397 129.516 15.3006C130.755 15.8614 131.746 16.7019 132.49 17.8221C133.252 18.9422 133.64 20.3344 133.657 21.9985C133.658 22.2132 133.652 22.4549 133.637 22.7235C133.621 22.9742 133.605 23.207 133.59 23.4218L122.299 23.5303L122.271 20.6046L130.343 20.5271L128.071 21.3274C128.065 20.7548 127.954 20.2727 127.735 19.8811C127.535 19.4714 127.255 19.1609 126.895 18.9496C126.536 18.7204 126.105 18.6082 125.605 18.613C125.104 18.6179 124.667 18.7384 124.294 18.9746C123.938 19.1928 123.664 19.5085 123.472 19.922C123.278 20.3176 123.185 20.8016 123.19 21.3743L123.199 22.2868C123.205 22.9131 123.335 23.4487 123.59 23.8937C123.845 24.3386 124.205 24.6752 124.672 24.9033C125.139 25.1136 125.704 25.2155 126.365 25.2092C127.045 25.2027 127.598 25.1079 128.026 24.9248C128.471 24.7416 128.933 24.4687 129.412 24.1062L132.608 27.2698C131.9 28.0462 131.02 28.6452 129.969 29.0669C128.936 29.4705 127.686 29.6793 126.22 29.6935Z" fill="white"/>
<mask id="mask0_2138_836" style="mask-type:luminance" maskUnits="userSpaceOnUse" x="48" y="6" width="90" height="28">
<path d="M137.333 6.65295H48.2818V33.7501H137.333V6.65295Z" fill="white"/>
<path d="M62.1509 30.4697C60.6311 30.4843 59.2255 30.2652 57.9338 29.8123C56.6597 29.3413 55.5447 28.672 54.5887 27.8044C53.6505 26.9365 52.9165 25.9056 52.3865 24.7117C51.8565 23.5177 51.5846 22.1961 51.5707 20.7467C51.5568 19.2973 51.8034 17.9706 52.3104 16.7668C52.8173 15.5629 53.5405 14.518 54.4796 13.6321C55.4188 12.7462 56.5298 12.0645 57.8127 11.5868C59.1132 11.0912 60.5411 10.8359 62.0966 10.8209C63.9562 10.8031 65.613 11.1003 67.0673 11.7127C68.5394 12.3249 69.7546 13.208 70.7136 14.362L66.6984 17.9708C66.1018 17.2965 65.4527 16.7927 64.7524 16.4594C64.0694 16.108 63.3083 15.9364 62.4679 15.9444C61.7706 15.9511 61.1365 16.0646 60.5667 16.2848C60.0142 16.5049 59.5437 16.8226 59.1543 17.2379C58.7649 17.6533 58.4657 18.1482 58.2566 18.7229C58.0475 19.2976 57.9465 19.9517 57.9535 20.6854C57.9603 21.3833 58.0737 22.0264 58.2939 22.6148C58.514 23.1854 58.8226 23.6746 59.2199 24.0823C59.6173 24.4901 60.0851 24.8078 60.6239 25.0352C61.18 25.2446 61.798 25.346 62.4775 25.3395C63.1927 25.3327 63.8888 25.2097 64.5659 24.9705C65.2429 24.7135 65.9629 24.286 66.7264 23.6882L70.3077 28.0023C69.1712 28.7828 67.8713 29.3858 66.4093 29.8114C64.9473 30.2371 63.5276 30.4565 62.1509 30.4697ZM64.8025 27.2499L64.7339 20.1103L70.2314 20.0574L70.3077 28.0023L64.8025 27.2499ZM81.7128 29.8524L81.6878 27.2489L81.2521 26.5551L81.2044 21.6164C81.1978 20.9006 80.969 20.357 80.5184 19.9855C80.0857 19.6139 79.3777 19.4328 78.3943 19.4422C77.7327 19.4485 77.0634 19.5623 76.3857 19.7836C75.7087 19.987 75.13 20.2699 74.6508 20.6324L72.6816 16.6516C73.5345 16.1066 74.5584 15.6852 75.754 15.3874C76.949 15.0896 78.1189 14.9352 79.2626 14.9242C81.7837 14.9 83.738 15.4449 85.1255 16.559C86.5309 17.673 87.2455 19.4556 87.2687 21.9071L87.3444 29.7983L81.7128 29.8524ZM77.5581 30.1607C76.3607 30.1723 75.357 29.9761 74.5489 29.5722C73.7401 29.1684 73.1268 28.6285 72.7096 27.9525C72.2912 27.2585 72.0784 26.4911 72.0701 25.6501C72.0612 24.7017 72.2948 23.8941 72.7716 23.2274C73.2478 22.5607 73.9761 22.0526 74.9559 21.7032C75.9542 21.3536 77.213 21.1715 78.7328 21.1569L81.7897 21.1276L81.8183 24.0532L79.7263 24.0733C79.0826 24.0795 78.6094 24.1914 78.3078 24.4091C78.0236 24.6087 77.8835 24.9142 77.8877 25.3258C77.8906 25.6658 78.0188 25.9508 78.2709 26.1811C78.5415 26.3932 78.9003 26.4972 79.3473 26.4929C79.7585 26.4889 80.1328 26.3779 80.4701 26.16C80.8259 25.9239 81.0816 25.5635 81.2378 25.0788L82.0328 26.8697C81.8105 27.9634 81.3272 28.7824 80.581 29.3264C79.8354 29.8704 78.8276 30.1485 77.5581 30.1607ZM109.237 14.6363C110.346 14.6257 111.341 14.8488 112.221 15.3056C113.12 15.7444 113.823 16.4445 114.333 17.406C114.861 18.3672 115.132 19.6173 115.147 21.1562L115.227 29.5306L109.166 29.5888L109.096 22.2612C109.087 21.3486 108.929 20.7059 108.622 20.333C108.314 19.9423 107.919 19.7492 107.436 19.7539C107.079 19.7573 106.757 19.8499 106.473 20.0315C106.189 20.2132 105.959 20.5018 105.784 20.8972C105.627 21.2745 105.551 21.7942 105.558 22.4562L105.626 29.6228L99.5654 29.681L99.495 22.3534C99.4861 21.4408 99.3371 20.798 99.0474 20.425C98.7572 20.0341 98.3531 19.8411 97.8346 19.8461C97.477 19.8495 97.1563 19.9421 96.8721 20.1238C96.5878 20.3055 96.3577 20.594 96.1831 20.9893C96.0257 21.3667 95.95 21.8864 95.9566 22.5484L96.0251 29.715L89.9638 29.7731L89.8232 15.0912L95.5895 15.0358L95.63 19.2498L94.4386 18.0802C94.9821 16.9655 95.7158 16.1352 96.6408 15.5895C97.5652 15.0258 98.5993 14.7385 99.7436 14.7275C101.031 14.7151 102.169 15.0442 103.159 15.7147C104.167 16.3672 104.848 17.4165 105.201 18.8627L103.348 18.5852C103.873 17.3633 104.642 16.4074 105.654 15.7177C106.684 15.0098 107.878 14.6494 109.237 14.6363ZM126.22 29.6935C124.432 29.7106 122.865 29.3946 121.517 28.7454C120.188 28.096 119.151 27.2023 118.407 26.064C117.663 24.908 117.284 23.6052 117.27 22.1559C117.256 20.6707 117.601 19.352 118.305 18.2C119.027 17.0477 120.011 16.1435 121.256 15.4873C122.52 14.8309 123.938 14.4952 125.511 14.4801C126.959 14.4662 128.294 14.7397 129.516 15.3006C130.755 15.8614 131.746 16.7019 132.49 17.8221C133.252 18.9422 133.64 20.3344 133.657 21.9985C133.658 22.2132 133.652 22.4549 133.637 22.7235C133.621 22.9742 133.605 23.207 133.59 23.4218L122.299 23.5303L122.271 20.6046L130.343 20.5271L128.071 21.3274C128.065 20.7548 127.954 20.2727 127.735 19.8811C127.535 19.4714 127.255 19.1609 126.895 18.9496C126.536 18.7204 126.105 18.6082 125.605 18.613C125.104 18.6179 124.667 18.7384 124.294 18.9746C123.938 19.1928 123.664 19.5085 123.472 19.922C123.278 20.3176 123.185 20.8016 123.19 21.3743L123.199 22.2868C123.205 22.9131 123.335 23.4487 123.59 23.8937C123.845 24.3386 124.205 24.6752 124.672 24.9033C125.139 25.1136 125.704 25.2155 126.365 25.2092C127.045 25.2027 127.598 25.1079 128.026 24.9248C128.471 24.7416 128.933 24.4687 129.412 24.1062L132.608 27.2698C131.9 28.0462 131.02 28.6452 129.969 29.0669C128.936 29.4705 127.686 29.6793 126.22 29.6935Z" fill="black"/>
</mask>
<g mask="url(#mask0_2138_836)">
<path d="M57.9338 29.8123L56.9013 32.61L56.9249 32.6188L56.9486 32.627L57.9338 29.8123ZM54.5887 27.8044L52.5659 29.9944L52.5763 30.0041L52.5868 30.0136L54.5887 27.8044ZM57.8127 11.5868L58.8517 14.3822L58.8624 14.3781L58.8732 14.3741L57.8127 11.5868ZM67.0673 11.7127L65.9116 14.4617L65.9176 14.4643L65.9236 14.4669L67.0673 11.7127ZM70.7136 14.362L72.7043 16.5811L74.8391 14.6628L73.0046 12.4552L70.7136 14.362ZM66.6984 17.9708L64.4669 19.9479L66.4564 22.1965L68.689 20.1898L66.6984 17.9708ZM64.7524 16.4594L63.39 19.1118L63.4311 19.133L63.4728 19.153L64.7524 16.4594ZM60.5667 16.2848L59.4936 13.5025L59.479 13.5081L59.4643 13.5139L60.5667 16.2848ZM58.2939 22.6148L55.5032 23.6609L55.5085 23.6749L55.5138 23.6888L58.2939 22.6148ZM60.6239 25.0352L59.4652 27.783L59.5195 27.806L59.5747 27.8267L60.6239 25.0352ZM64.5659 24.9705L65.5576 27.783L65.5904 27.7714L65.6226 27.759L64.5659 24.9705ZM66.7264 23.6881L69.018 21.7821L67.1686 19.554L64.8889 21.3396L66.7264 23.6881ZM70.3077 28.0023L71.9932 30.4618L74.6883 28.6119L72.5999 26.0963L70.3077 28.0023ZM64.8025 27.2499L61.8225 27.2785L61.8469 29.8562L64.399 30.2049L64.8025 27.2499ZM64.7339 20.1103L64.7053 17.1279L61.7253 17.1566L61.7539 20.1388L64.7339 20.1103ZM70.2314 20.0574L73.2114 20.0289L73.1828 17.0465L70.2028 17.0751L70.2314 20.0574ZM70.3077 28.0023L69.9048 30.9574L73.3205 31.4243L73.2877 27.9738L70.3077 28.0023ZM62.1509 30.4697L62.1223 27.4874C60.91 27.4991 59.8509 27.3244 58.919 26.9975L57.9338 29.8123L56.9486 32.627C58.6 33.206 60.3528 33.4696 62.1795 33.4521L62.1509 30.4697ZM57.9338 29.8123L58.9662 27.0146C58.031 26.6689 57.2494 26.1931 56.5906 25.5951L54.5887 27.8044L52.5868 30.0136C53.84 31.151 55.2885 32.0139 56.9013 32.61L57.9338 29.8123ZM54.5887 27.8044L56.6115 25.6142C55.9776 25.0278 55.479 24.3322 55.1099 23.5007L52.3866 24.7117L49.6632 25.9225C50.3541 27.4789 51.3236 28.8452 52.5659 29.9944L54.5887 27.8044ZM52.3866 24.7117L55.1099 23.5007C54.7624 22.7181 54.561 21.8047 54.5506 20.718L51.5707 20.7467L48.5908 20.7753C48.6082 22.5874 48.9506 24.3174 49.6632 25.9225L52.3866 24.7117ZM51.5707 20.7467L54.5506 20.718C54.5401 19.6314 54.7241 18.7143 55.0564 17.9251L52.3104 16.7668L49.5643 15.6084C48.8827 17.227 48.5735 18.9632 48.5908 20.7753L51.5707 20.7467ZM52.3104 16.7668L55.0564 17.9251C55.4042 17.0993 55.8898 16.4003 56.5235 15.8025L54.4796 13.6321L52.4358 11.4617C51.1912 12.6357 50.2305 14.0264 49.5643 15.6084L52.3104 16.7668ZM54.4796 13.6321L56.5235 15.8025C57.1556 15.2063 57.9192 14.7293 58.8517 14.3822L57.8127 11.5868L56.7737 8.79156C55.1405 9.39956 53.6821 10.2861 52.4358 11.4617L54.4796 13.6321ZM57.8127 11.5868L58.8732 14.3741C59.8074 14.018 60.8814 13.8152 62.1253 13.8033L62.0966 10.8209L62.068 7.8386C60.2014 7.85656 58.419 8.1644 56.7522 8.79967L57.8127 11.5868ZM62.0966 10.8209L62.1253 13.8033C63.6498 13.7886 64.8931 14.0327 65.9116 14.4617L67.0673 11.7127L68.2229 8.9637C66.333 8.16792 64.2625 7.81754 62.068 7.8386L62.0966 10.8209ZM67.0673 11.7127L65.9236 14.4669C66.9791 14.9058 67.7914 15.5095 68.422 16.2689L70.7136 14.362L73.0046 12.4552C71.7185 10.9066 70.0997 9.74403 68.211 8.95857L67.0673 11.7127ZM70.7136 14.362L68.7224 12.1429L64.7071 15.7517L66.6984 17.9708L68.689 20.1898L72.7043 16.5811L70.7136 14.362ZM66.6984 17.9708L68.9292 15.9937C68.1091 15.0665 67.1477 14.2968 66.032 13.7658L64.7524 16.4594L63.4728 19.153C63.7583 19.2886 64.0938 19.5264 64.4669 19.9479L66.6984 17.9708ZM64.7524 16.4594L66.1149 13.8069C64.9622 13.2139 63.7166 12.9499 62.4393 12.9621L62.468 15.9444L62.4966 18.9268C62.8995 18.9229 63.1766 19.0022 63.39 19.1118L64.7524 16.4594ZM62.468 15.9444L62.4393 12.9621C61.4345 12.9718 60.4404 13.1366 59.4936 13.5025L60.5667 16.2848L61.6395 19.0672C61.8326 18.9926 62.1068 18.9305 62.4966 18.9268L62.468 15.9444ZM60.5667 16.2848L59.4643 13.5139C58.5245 13.8885 57.683 14.4486 56.9812 15.1972L59.1543 17.2379L61.3272 19.2786C61.4047 19.1966 61.5042 19.1213 61.6693 19.0557L60.5667 16.2848ZM59.1543 17.2379L56.9812 15.1972C56.2961 15.9279 55.7931 16.7771 55.4564 17.7025L58.2566 18.7229L61.0566 19.7433C61.1383 19.5194 61.2336 19.3786 61.3272 19.2786L59.1543 17.2379ZM58.2566 18.7229L55.4564 17.7025C55.1034 18.6729 54.9639 19.6923 54.9737 20.714L57.9536 20.6854L60.9333 20.6568C60.9291 20.2112 60.9917 19.9222 61.0566 19.7433L58.2566 18.7229ZM57.9536 20.6854L54.9737 20.714C54.9834 21.7212 55.1485 22.7129 55.5032 23.6609L58.2939 22.6148L61.0846 21.5688C60.9988 21.3399 60.9374 21.0453 60.9333 20.6568L57.9536 20.6854ZM58.2939 22.6148L55.5138 23.6888C55.8681 24.6076 56.3873 25.447 57.0863 26.1644L59.2199 24.0823L61.3534 22.0002C61.2581 21.9021 61.1597 21.7632 61.0739 21.5409L58.2939 22.6148ZM59.2199 24.0823L57.0863 26.1644C57.7686 26.8648 58.5707 27.4052 59.4652 27.783L60.6239 25.0352L61.7826 22.2874C61.5996 22.2102 61.4655 22.1154 61.3534 22.0002L59.2199 24.0823ZM60.6239 25.0352L59.5747 27.8267C60.5208 28.1829 61.5108 28.3314 62.5061 28.3219L62.4775 25.3395L62.4489 22.3572C62.0853 22.3607 61.8392 22.3063 61.6729 22.2437L60.6239 25.0352ZM62.4775 25.3395L62.5061 28.3219C63.5509 28.3118 64.5718 28.131 65.5576 27.783L64.5659 24.9705L63.5741 22.158C63.2052 22.2883 62.8345 22.3535 62.4489 22.3572L62.4775 25.3395ZM64.5659 24.9705L65.6226 27.759C66.6572 27.3664 67.6383 26.7612 68.5632 26.0366L66.7264 23.6881L64.8889 21.3396C64.2875 21.8108 63.8286 22.0606 63.5092 22.1819L64.5659 24.9705ZM66.7264 23.6881L64.4342 25.5942L68.0155 29.9084L70.3077 28.0023L72.5999 26.0963L69.018 21.7821L66.7264 23.6881ZM70.3077 28.0023L68.6222 25.5428C67.7724 26.1263 66.7669 26.6014 65.5773 26.9477L66.4093 29.8114L67.2413 32.6752C68.9763 32.1703 70.5694 31.4393 71.9932 30.4618L70.3077 28.0023ZM66.4093 29.8114L65.5773 26.9477C64.3489 27.3052 63.1998 27.4771 62.1223 27.4874L62.1509 30.4697L62.1795 33.4521C63.8554 33.4359 65.5457 33.169 67.2413 32.6752L66.4093 29.8114ZM64.8025 27.2499L67.7819 27.2213L67.7139 20.0816L64.7339 20.1103L61.7539 20.1388L61.8225 27.2785L64.8025 27.2499ZM64.7339 20.1103L64.7626 23.0926L70.2601 23.0398L70.2314 20.0574L70.2028 17.0751L64.7053 17.1279L64.7339 20.1103ZM70.2314 20.0574L67.252 20.0861L67.3277 28.031L70.3077 28.0023L73.2877 27.9738L73.2114 20.0289L70.2314 20.0574ZM70.3077 28.0023L70.7112 25.0473L65.2054 24.2949L64.8025 27.2499L64.399 30.2049L69.9048 30.9574L70.3077 28.0023ZM81.7128 29.8524L78.7328 29.881L78.7614 32.8633L81.7414 32.8347L81.7128 29.8524ZM81.6878 27.2488L84.6678 27.2202L84.6594 26.3761L84.2106 25.6614L81.6878 27.2488ZM81.2521 26.5551L78.2721 26.5837L78.2804 27.4278L78.7292 28.1425L81.2521 26.5551ZM80.5184 19.9855L78.5778 22.2488L78.6005 22.2684L78.6237 22.2875L80.5184 19.9855ZM76.3857 19.7836L77.2422 22.6404L77.2762 22.63L77.3107 22.6189L76.3857 19.7836ZM74.6508 20.6324L71.9801 21.9558L73.5768 25.183L76.4471 23.0118L74.6508 20.6324ZM72.6816 16.6516L71.0778 14.1378L68.8249 15.5774L70.0109 17.975L72.6816 16.6516ZM85.1255 16.559L83.2606 18.8853L83.2684 18.8912L83.2755 18.8971L85.1255 16.559ZM87.3444 29.7983L87.373 32.7806L90.353 32.752L90.3244 29.7697L87.3444 29.7983ZM72.7096 27.9525L70.1569 29.4921L70.1659 29.5067L70.1748 29.5212L72.7096 27.9525ZM74.9559 21.7032L73.9713 18.8882L73.9636 18.8909L73.9559 18.8937L74.9559 21.7032ZM81.7897 21.1276L84.7697 21.099L84.7411 18.1166L81.7611 18.1453L81.7897 21.1276ZM81.8183 24.0532L81.8463 27.0355L84.8263 27.0069L84.7977 24.0246L81.8183 24.0532ZM78.3078 24.4091L80.0196 26.8504L80.0345 26.8398L80.0494 26.829L78.3078 24.4091ZM78.2709 26.1811L76.2648 28.3859L76.3458 28.46L76.4322 28.5277L78.2709 26.1811ZM80.4701 26.1599L82.0859 28.6662L82.102 28.6556L82.1181 28.6449L80.4701 26.1599ZM81.2378 25.0788L83.9609 23.8679L80.7961 16.7378L78.402 24.1629L81.2378 25.0788ZM82.0328 26.8697L84.9532 27.4633L85.1428 26.5296L84.756 25.6588L82.0328 26.8697ZM81.7128 29.8524L84.6928 29.8238L84.6678 27.2202L81.6878 27.2488L78.7078 27.2774L78.7328 29.881L81.7128 29.8524ZM81.6878 27.2488L84.2106 25.6614L83.7749 24.9677L81.2521 26.5551L78.7292 28.1425L79.1649 28.8362L81.6878 27.2488ZM81.2521 26.5551L84.2315 26.5265L84.1844 21.5877L81.2044 21.6164L78.2244 21.645L78.2721 26.5837L81.2521 26.5551ZM81.2044 21.6164L84.1844 21.5877C84.1713 20.208 83.6945 18.7399 82.4131 17.6835L80.5184 19.9855L78.6237 22.2875C78.4729 22.1633 78.3525 21.9979 78.2816 21.8293C78.2173 21.6761 78.2244 21.5943 78.2244 21.645L81.2044 21.6164ZM80.5184 19.9855L82.459 17.7222C81.2008 16.6415 79.5928 16.4481 78.3657 16.4599L78.3943 19.4422L78.4229 22.4245C78.5754 22.4231 78.6929 22.4293 78.7793 22.4381C78.8669 22.4469 78.9128 22.4573 78.9247 22.4605C78.9563 22.4685 78.7924 22.4334 78.5778 22.2488L80.5184 19.9855ZM78.3943 19.4422L78.3657 16.4599C77.3775 16.4694 76.406 16.6398 75.4613 16.9483L76.3857 19.7836L77.3107 22.6189C77.7208 22.4849 78.0885 22.4277 78.4229 22.4245L78.3943 19.4422ZM76.3857 19.7836L75.5299 16.9269C74.5721 17.2144 73.6614 17.6424 72.8538 18.253L74.6508 20.6324L76.4471 23.0118C76.5985 22.8974 76.8453 22.7595 77.2422 22.6404L76.3857 19.7836ZM74.6508 20.6324L77.3215 19.3091L75.3523 15.3283L72.6816 16.6516L70.0109 17.975L71.9801 21.9558L74.6508 20.6324ZM72.6816 16.6516L74.2848 19.1655C74.8147 18.8272 75.5263 18.5176 76.4739 18.2815L75.754 15.3874L75.034 12.4933C73.5911 12.8528 72.2549 13.386 71.0778 14.1378L72.6816 16.6516ZM75.754 15.3874L76.4739 18.2815C77.4597 18.0358 78.3972 17.9151 79.2912 17.9065L79.2626 14.9242L79.234 11.9419C77.84 11.9552 76.4382 12.1434 75.034 12.4933L75.754 15.3874ZM79.2626 14.9242L79.2912 17.9065C81.4064 17.8862 82.5949 18.3506 83.2606 18.8853L85.1255 16.559L86.9904 14.2327C84.8817 12.5393 82.1616 11.9138 79.234 11.9419L79.2626 14.9242ZM85.1255 16.559L83.2755 18.8971C83.7398 19.2653 84.2708 20.0351 84.2893 21.9357L87.2687 21.9071L90.2487 21.8785C90.2201 18.8761 89.3219 16.0806 86.9755 14.2209L85.1255 16.559ZM87.2687 21.9071L84.2893 21.9357L84.365 29.8269L87.3444 29.7983L90.3244 29.7697L90.2487 21.8785L87.2687 21.9071ZM87.3444 29.7983L87.3158 26.816L81.6842 26.8701L81.7128 29.8524L81.7414 32.8347L87.373 32.7806L87.3444 29.7983ZM77.5581 30.1607L77.5295 27.1784C76.6557 27.1868 76.1515 27.0395 75.8791 26.9037L74.5489 29.5722L73.218 32.2408C74.5632 32.9126 76.0651 33.1576 77.5867 33.143L77.5581 30.1607ZM74.5489 29.5722L75.8791 26.9037C75.4965 26.7124 75.3314 26.526 75.2438 26.3837L72.7096 27.9525L70.1748 29.5212C70.9222 30.731 71.9837 31.6243 73.218 32.2408L74.5489 29.5722ZM72.7096 27.9525L75.2617 26.4128C75.1294 26.1931 75.0537 25.9508 75.0501 25.6214L72.0701 25.6501L69.0907 25.6786C69.1032 27.0314 69.4537 28.324 70.1569 29.4921L72.7096 27.9525ZM72.0701 25.6501L75.0501 25.6214C75.0459 25.202 75.1419 25.0371 75.1955 24.9623L72.7716 23.2274L70.3471 21.4925C69.4483 22.7511 69.0764 24.2013 69.0907 25.6786L72.0701 25.6501ZM72.7716 23.2274L75.1955 24.9623C75.2325 24.9099 75.394 24.7131 75.956 24.5127L74.9559 21.7032L73.9559 18.8937C72.5576 19.3922 71.2625 20.2116 70.3471 21.4925L72.7716 23.2274ZM74.9559 21.7032L75.9405 24.5182C76.5288 24.3121 77.4371 24.152 78.7614 24.1392L78.7328 21.1569L78.7042 18.1746C76.9883 18.1911 75.3791 18.3951 73.9713 18.8882L74.9559 21.7032ZM78.7328 21.1569L78.7614 24.1392L81.8183 24.1099L81.7897 21.1276L81.7611 18.1453L78.7042 18.1746L78.7328 21.1569ZM81.7897 21.1276L78.8103 21.1562L78.8383 24.0818L81.8183 24.0532L84.7977 24.0246L84.7697 21.099L81.7897 21.1276ZM81.8183 24.0532L81.7897 21.0709L79.6977 21.091L79.7263 24.0733L79.7549 27.0556L81.8463 27.0355L81.8183 24.0532ZM79.7263 24.0733L79.6977 21.091C78.8383 21.0993 77.6153 21.2328 76.5657 21.9891L78.3078 24.4091L80.0494 26.829C79.8026 27.0069 79.6077 27.0564 79.5749 27.0642C79.5392 27.0727 79.5875 27.0573 79.7549 27.0556L79.7263 24.0733ZM78.3078 24.4091L76.5961 21.9677C75.3523 22.8412 74.8963 24.1686 74.9077 25.3544L77.8877 25.3258L80.8671 25.2971C80.8689 25.434 80.8474 25.7064 80.6978 26.0319C80.5405 26.3761 80.2949 26.6571 80.0196 26.8504L78.3078 24.4091ZM77.8877 25.3258L74.9077 25.3544C74.919 26.5289 75.4029 27.6008 76.2648 28.3859L78.2709 26.1811L80.2776 23.9761C80.4248 24.1104 80.5858 24.3086 80.7044 24.573C80.823 24.8378 80.8653 25.0922 80.8671 25.2971L77.8877 25.3258ZM78.2709 26.1811L76.4322 28.5277C77.3769 29.2694 78.458 29.484 79.3759 29.4752L79.3473 26.4929L79.3187 23.5105C79.3419 23.5103 79.7061 23.517 80.1101 23.8344L78.2709 26.1811ZM79.3473 26.4929L79.3759 29.4752C80.336 29.4659 81.2628 29.1973 82.0859 28.6662L80.4701 26.1599L78.855 23.6537C78.9176 23.6133 78.9974 23.5744 79.0904 23.547C79.1822 23.5197 79.262 23.511 79.3187 23.5105L79.3473 26.4929ZM80.4701 26.1599L82.1181 28.6449C83.139 27.9669 83.7517 26.9931 84.0735 25.9948L81.2378 25.0788L78.402 24.1629C78.4032 24.1587 78.4265 24.0876 78.4992 23.9853C78.5755 23.8779 78.6845 23.7666 78.8222 23.675L80.4701 26.1599ZM81.2378 25.0788L78.5147 26.2897L79.3091 28.0806L82.0328 26.8697L84.756 25.6588L83.9609 23.8679L81.2378 25.0788ZM82.0328 26.8697L79.1124 26.2761C79.0058 26.8002 78.8502 26.8985 78.8258 26.9162L80.581 29.3264L82.3362 31.7365C83.8036 30.6662 84.6153 29.1267 84.9532 27.4633L82.0328 26.8697ZM80.581 29.3264L78.8258 26.9162C78.7393 26.9795 78.4056 27.17 77.5295 27.1784L77.5581 30.1607L77.5867 33.143C79.2495 33.1271 80.9314 32.7614 82.3362 31.7365L80.581 29.3264ZM112.221 15.3056L110.849 17.9534L110.882 17.9701L110.914 17.9859L112.221 15.3056ZM114.333 17.406L111.701 18.8041L111.711 18.8232L111.721 18.8422L114.333 17.406ZM115.227 29.5305L115.256 32.5129L118.236 32.4842L118.207 29.5019L115.227 29.5305ZM109.166 29.5888L106.186 29.6174L106.215 32.5997L109.195 32.5711L109.166 29.5888ZM108.622 20.333L106.281 22.1792L106.302 22.2057L106.323 22.2318L108.622 20.333ZM105.784 20.8972L103.059 19.6891L103.046 19.7187L103.034 19.7487L105.784 20.8972ZM105.626 29.6228L105.655 32.6051L108.635 32.5765L108.606 29.5941L105.626 29.6228ZM99.5654 29.681L96.5854 29.7095L96.614 32.6919L99.594 32.6633L99.5654 29.681ZM99.0475 20.425L96.6539 22.2022L96.6742 22.2289L96.6944 22.2551L99.0475 20.425ZM96.1831 20.9893L93.4582 19.7813L93.4451 19.811L93.4325 19.8408L96.1831 20.9893ZM96.0251 29.715L96.0537 32.6973L99.0337 32.6686L99.0051 29.6863L96.0251 29.715ZM89.9638 29.7731L86.9844 29.8018L87.013 32.7841L89.9924 32.7555L89.9638 29.7731ZM89.8232 15.0912L89.7946 12.1089L86.8146 12.1375L86.8432 15.1198L89.8232 15.0912ZM95.5895 15.0358L98.5695 15.0072L98.5409 12.0249L95.5609 12.0535L95.5895 15.0358ZM95.63 19.2498L93.5428 21.3789L98.6785 26.4212L98.6094 19.2212L95.63 19.2498ZM94.4386 18.0802L91.7602 16.772L90.8185 18.7039L92.3514 20.2092L94.4386 18.0802ZM96.6408 15.5895L98.1546 18.1584L98.1731 18.1475L98.191 18.1364L96.6408 15.5895ZM103.159 15.7147L101.489 18.1846L101.515 18.202L101.541 18.2187L103.159 15.7147ZM105.201 18.8627L104.76 21.8123L109.151 22.4697L108.096 18.1537L105.201 18.8627ZM103.348 18.5852L100.61 17.4076L99.0838 20.9624L102.907 21.5348L103.348 18.5852ZM105.654 15.7177L107.331 18.1832L107.335 18.1799L107.34 18.1765L105.654 15.7177ZM109.237 14.6363L109.266 17.6187C109.946 17.6121 110.45 17.7463 110.849 17.9534L112.221 15.3056L113.592 12.6578C112.231 11.9513 110.746 11.6393 109.209 11.654L109.237 14.6363ZM112.221 15.3056L110.914 17.9859C111.196 18.1235 111.459 18.3477 111.701 18.8041L114.333 17.406L116.966 16.0077C116.188 14.5413 115.043 13.3652 113.528 12.6253L112.221 15.3056ZM114.333 17.406L111.721 18.8422C111.936 19.2331 112.155 19.951 112.167 21.1848L115.147 21.1562L118.127 21.1276C118.109 19.2836 117.786 17.5014 116.945 15.9697L114.333 17.406ZM115.147 21.1562L112.167 21.1848L112.248 29.5592L115.227 29.5305L118.207 29.5019L118.127 21.1276L115.147 21.1562ZM115.227 29.5305L115.198 26.5482L109.138 26.6064L109.166 29.5888L109.195 32.5711L115.256 32.5129L115.227 29.5305ZM109.166 29.5888L112.146 29.5601L112.076 22.2326L109.096 22.2612L106.116 22.2898L106.186 29.6174L109.166 29.5888ZM109.096 22.2612L112.076 22.2326C112.066 21.1631 111.907 19.632 110.92 18.4343L108.622 20.333L106.323 22.2318C106.213 22.0974 106.149 21.9799 106.116 21.9073C106.083 21.8357 106.075 21.7972 106.077 21.8079C106.08 21.8179 106.089 21.8613 106.099 21.9459C106.108 22.0297 106.115 22.143 106.116 22.2898L109.096 22.2612ZM108.622 20.333L110.962 18.4869C110.103 17.3959 108.845 16.7578 107.408 16.7715L107.436 19.7539L107.465 22.7362C107.289 22.7379 107.045 22.7013 106.787 22.5755C106.533 22.451 106.368 22.2899 106.281 22.1792L108.622 20.333ZM107.436 19.7539L107.408 16.7715C106.526 16.78 105.653 17.0169 104.869 17.5177L106.473 20.0315L108.077 22.5454C107.98 22.6071 107.869 22.6579 107.752 22.6917C107.636 22.7252 107.536 22.7355 107.465 22.7362L107.436 19.7539ZM106.473 20.0315L104.869 17.5177C103.97 18.0927 103.405 18.9072 103.059 19.6891L105.784 20.8972L108.508 22.1052C108.513 22.0964 108.408 22.3338 108.077 22.5454L106.473 20.0315ZM105.784 20.8972L103.034 19.7487C102.654 20.6589 102.57 21.639 102.578 22.4848L105.558 22.4562L108.538 22.4276C108.535 22.2122 108.548 22.0742 108.558 21.9989C108.57 21.9201 108.575 21.9493 108.534 22.0457L105.784 20.8972ZM105.558 22.4562L102.578 22.4848L102.646 29.6514L105.626 29.6228L108.606 29.5941L108.538 22.4276L105.558 22.4562ZM105.626 29.6228L105.597 26.6404L99.5368 26.6986L99.5654 29.681L99.594 32.6633L105.655 32.6051L105.626 29.6228ZM99.5654 29.681L102.545 29.6523L102.475 22.3248L99.495 22.3534L96.515 22.382L96.5854 29.7095L99.5654 29.681ZM99.495 22.3534L102.475 22.3248C102.465 21.2778 102.321 19.781 101.4 18.5948L99.0475 20.425L96.6944 22.2551C96.589 22.1194 96.5311 22.0045 96.5031 21.939C96.4751 21.874 96.4692 21.8431 96.4739 21.8618C96.4781 21.8795 96.4882 21.9301 96.4972 22.0211C96.5067 22.1113 96.5139 22.2304 96.515 22.382L99.495 22.3534ZM99.0475 20.425L101.44 18.6477C100.54 17.4331 99.2042 16.8503 97.806 16.8638L97.8346 19.8461L97.8632 22.8284C97.7404 22.8296 97.511 22.8065 97.244 22.6789C96.9698 22.548 96.7737 22.3633 96.6539 22.2022L99.0475 20.425ZM97.8346 19.8461L97.806 16.8638C96.9251 16.8722 96.052 17.1091 95.2682 17.6099L96.8721 20.1238L98.4753 22.6376C98.3787 22.6993 98.2685 22.7501 98.1511 22.7839C98.0348 22.8174 97.9353 22.8277 97.8632 22.8284L97.8346 19.8461ZM96.8721 20.1238L95.2682 17.6099C94.3683 18.1849 93.8044 18.9993 93.4582 19.7813L96.1831 20.9893L98.9074 22.1974C98.9116 22.1886 98.8067 22.426 98.4753 22.6376L96.8721 20.1238ZM96.1831 20.9893L93.4325 19.8408C93.0529 20.7511 92.9683 21.7312 92.9766 22.5771L95.9566 22.5484L98.936 22.5198C98.9342 22.3043 98.9461 22.1664 98.9575 22.0911C98.9688 22.0123 98.9729 22.0415 98.933 22.1378L96.1831 20.9893ZM95.9566 22.5484L92.9766 22.5771L93.0451 29.7435L96.0251 29.715L99.0051 29.6863L98.936 22.5198L95.9566 22.5484ZM96.0251 29.715L95.9965 26.7326L89.9352 26.7909L89.9638 29.7731L89.9924 32.7555L96.0537 32.6973L96.0251 29.715ZM89.9638 29.7731L92.9438 29.7446L92.8032 15.0626L89.8232 15.0912L86.8432 15.1198L86.9844 29.8018L89.9638 29.7731ZM89.8232 15.0912L89.8518 18.0735L95.6181 18.0181L95.5895 15.0358L95.5609 12.0535L89.7946 12.1089L89.8232 15.0912ZM95.5895 15.0358L92.6095 15.0644L92.65 19.2785L95.63 19.2498L98.6094 19.2212L98.5695 15.0072L95.5895 15.0358ZM95.63 19.2498L97.7166 17.1208L96.5252 15.9511L94.4386 18.0802L92.3514 20.2092L93.5428 21.3789L95.63 19.2498ZM94.4386 18.0802L97.1164 19.3883C97.4442 18.7156 97.8072 18.3633 98.1546 18.1584L96.6408 15.5895L95.127 13.0205C93.625 13.9071 92.5195 15.2153 91.7602 16.772L94.4386 18.0802ZM96.6408 15.5895L98.191 18.1364C98.6303 17.8687 99.1333 17.716 99.7722 17.7098L99.7436 14.7275L99.715 11.7452C98.0658 11.761 96.5001 12.1828 95.09 13.0424L96.6408 15.5895ZM99.7436 14.7275L99.7722 17.7098C100.503 17.7028 101.039 17.8801 101.489 18.1846L103.159 15.7147L104.83 13.2448C103.299 12.2083 101.558 11.7275 99.715 11.7452L99.7436 14.7275ZM103.159 15.7147L101.541 18.2187C101.765 18.3643 102.088 18.6789 102.306 19.5716L105.201 18.8627L108.096 18.1537C107.607 16.1542 106.569 14.3701 104.778 13.2107L103.159 15.7147ZM105.201 18.8627L105.642 15.913L103.789 15.6355L103.348 18.5852L102.907 21.5348L104.76 21.8123L105.201 18.8627ZM103.348 18.5852L106.086 19.7628C106.406 19.0164 106.826 18.5264 107.331 18.1832L105.654 15.7177L103.977 13.2521C102.456 14.2884 101.339 15.7101 100.61 17.4076L103.348 18.5852ZM105.654 15.7177L107.34 18.1765C107.84 17.8336 108.445 17.6265 109.266 17.6187L109.237 14.6363L109.209 11.654C107.312 11.6723 105.529 12.186 103.967 13.2587L105.654 15.7177ZM121.517 28.7454L120.21 31.4257L120.217 31.4291L120.225 31.4326L121.517 28.7454ZM118.407 26.064L115.902 27.6793L115.908 27.6882L115.914 27.6969L118.407 26.064ZM118.305 18.2L115.781 16.6153L115.772 16.6294L115.763 16.6436L118.305 18.2ZM121.256 15.4873L119.883 12.8403L119.876 12.8442L119.868 12.8482L121.256 15.4873ZM129.516 15.3006L128.272 18.0112L128.28 18.0147L128.288 18.0181L129.516 15.3006ZM132.49 17.8221L130.008 19.4729L130.017 19.4866L130.026 19.5002L132.49 17.8221ZM133.637 22.7234L136.611 22.9074L136.612 22.9004V22.8933L133.637 22.7234ZM133.59 23.4218L133.618 26.4042L136.36 26.3778L136.561 23.641L133.59 23.4218ZM122.299 23.5303L119.319 23.5589L119.348 26.5412L122.328 26.5126L122.299 23.5303ZM122.271 20.6046L122.243 17.6223L119.263 17.6509L119.291 20.6332L122.271 20.6046ZM130.343 20.5271L131.333 23.3404L130.315 17.5448L130.343 20.5271ZM128.071 21.3274L125.091 21.356L125.131 25.5246L129.061 24.1407L128.071 21.3274ZM127.735 19.881L125.06 21.1936L125.094 21.2649L125.133 21.3343L127.735 19.881ZM126.895 18.9496L125.295 21.4657L125.341 21.4945L125.386 21.5216L126.895 18.9496ZM124.294 18.9746L125.851 21.5172L125.869 21.5064L125.887 21.4953L124.294 18.9746ZM123.472 19.922L126.149 21.2301L126.161 21.2066L126.172 21.1829L123.472 19.922ZM124.672 24.9033L123.365 27.5836L123.407 27.604L123.449 27.6231L124.672 24.9033ZM128.026 24.9248L126.892 22.1664L126.872 22.1746L126.853 22.1829L128.026 24.9248ZM129.412 24.1062L131.508 21.9859L129.674 20.17L127.616 21.7268L129.412 24.1062ZM132.608 27.2698L134.809 29.2802L136.738 27.1642L134.703 25.1497L132.608 27.2698ZM129.969 29.0669L131.053 31.8452L131.066 31.8402L131.078 31.8351L129.969 29.0669ZM126.22 29.6934L126.192 26.7111C124.773 26.7247 123.672 26.4736 122.81 26.0581L121.517 28.7454L120.225 31.4326C122.057 32.3155 124.093 32.6964 126.249 32.6757L126.22 29.6934ZM121.517 28.7454L122.825 26.0651C121.934 25.6299 121.325 25.0802 120.901 24.4312L118.407 26.064L115.914 27.6969C116.978 29.3243 118.442 30.5621 120.21 31.4257L121.517 28.7454ZM118.407 26.064L120.912 24.4488C120.49 23.7922 120.259 23.0454 120.25 22.1272L117.27 22.1559L114.29 22.1845C114.309 24.1652 114.837 26.0238 115.902 27.6793L118.407 26.064ZM117.27 22.1559L120.25 22.1272C120.241 21.1433 120.463 20.3846 120.847 19.7563L118.305 18.2L115.763 16.6436C114.739 18.3194 114.271 20.198 114.29 22.1845L117.27 22.1559ZM118.305 18.2L120.829 19.7846C121.262 19.0942 121.847 18.5466 122.645 18.1263L121.256 15.4873L119.868 12.8482C118.175 13.7403 116.792 15.0011 115.781 16.6153L118.305 18.2ZM121.256 15.4873L122.629 18.1343C123.435 17.7158 124.385 17.4735 125.54 17.4624L125.511 14.4801L125.482 11.4977C123.491 11.5169 121.604 11.946 119.883 12.8403L121.256 15.4873ZM125.511 14.4801L125.54 17.4624C126.584 17.4523 127.48 17.6474 128.272 18.0112L129.516 15.3006L130.758 12.59C129.108 11.8319 127.335 11.4799 125.482 11.4977L125.511 14.4801ZM129.516 15.3006L128.288 18.0181C129.023 18.3511 129.578 18.8248 130.008 19.4729L132.49 17.8221L134.972 16.1714C133.915 14.5789 132.486 13.3716 130.743 12.583L129.516 15.3006ZM132.49 17.8221L130.026 19.5002C130.389 20.0326 130.665 20.8163 130.677 22.0271L133.657 21.9985L136.637 21.9699C136.616 19.8524 136.115 17.852 134.953 16.144L132.49 17.8221ZM133.657 21.9985L130.677 22.0271C130.678 22.1616 130.674 22.3354 130.662 22.5536L133.637 22.7234L136.612 22.8933C136.63 22.5743 136.639 22.2648 136.637 21.9699L133.657 21.9985ZM133.637 22.7234L130.662 22.5395C130.647 22.7803 130.632 23.0012 130.618 23.2027L133.59 23.4218L136.561 23.641C136.578 23.4126 136.595 23.1679 136.611 22.9074L133.637 22.7234ZM133.59 23.4218L133.561 20.4395L122.271 20.5479L122.299 23.5303L122.328 26.5126L133.618 26.4042L133.59 23.4218ZM122.299 23.5303L125.279 23.5016L125.251 20.576L122.271 20.6046L119.291 20.6332L119.319 23.5589L122.299 23.5303ZM122.271 20.6046L122.3 23.5869L130.372 23.5094L130.343 20.5271L130.315 17.5448L122.243 17.6223L122.271 20.6046ZM130.343 20.5271L129.354 17.7138L127.082 18.5141L128.071 21.3274L129.061 24.1407L131.333 23.3404L130.343 20.5271ZM128.071 21.3274L131.051 21.2987C131.042 20.3621 130.857 19.3595 130.338 18.4278L127.735 19.881L125.133 21.3343C125.114 21.299 125.1 21.2691 125.092 21.2469C125.084 21.225 125.081 21.2123 125.081 21.2112C125.08 21.2103 125.09 21.2542 125.091 21.356L128.071 21.3274ZM127.735 19.881L130.411 18.5685C129.979 17.6845 129.314 16.9125 128.404 16.3776L126.895 18.9496L125.386 21.5216C125.304 21.4728 125.227 21.4099 125.163 21.3398C125.102 21.2712 125.071 21.2156 125.06 21.1936L127.735 19.881ZM126.895 18.9496L128.495 16.4335C127.57 15.8439 126.551 15.6213 125.576 15.6307L125.605 18.613L125.633 21.5954C125.653 21.5952 125.621 21.5977 125.551 21.5797C125.479 21.5608 125.388 21.5249 125.295 21.4657L126.895 18.9496ZM125.605 18.613L125.576 15.6307C124.597 15.6401 123.603 15.8831 122.701 16.4539L124.294 18.9746L125.887 21.4953C125.819 21.5383 125.75 21.5665 125.693 21.5823C125.639 21.5973 125.614 21.5955 125.633 21.5954L125.605 18.613ZM124.294 18.9746L122.736 16.432C121.836 16.9843 121.186 17.7689 120.771 18.6611L123.472 19.922L126.172 21.1829C126.161 21.2051 126.131 21.2613 126.071 21.331C126.009 21.4023 125.934 21.4668 125.851 21.5172L124.294 18.9746ZM123.472 19.922L120.793 18.6139C120.346 19.5314 120.202 20.5016 120.21 21.4029L123.19 21.3742L126.17 21.3456C126.169 21.228 126.179 21.1663 126.182 21.1489C126.185 21.1333 126.18 21.1667 126.149 21.2301L123.472 19.922ZM123.19 21.3742L120.21 21.4029L120.219 22.3154L123.199 22.2868L126.179 22.2582L126.17 21.3456L123.19 21.3742ZM123.199 22.2868L120.219 22.3154C120.229 23.3397 120.446 24.3999 121.004 25.3758L123.59 23.8936L126.176 22.4115C126.198 22.4497 126.201 22.4687 126.196 22.4527C126.192 22.4342 126.18 22.3735 126.179 22.2582L123.199 22.2868ZM123.59 23.8936L121.004 25.3758C121.56 26.3473 122.37 27.0974 123.365 27.5836L124.672 24.9033L125.979 22.223C125.997 22.2313 126.037 22.2545 126.083 22.2979C126.13 22.3415 126.16 22.3843 126.176 22.4115L123.59 23.8936ZM124.672 24.9033L123.449 27.6231C124.407 28.0542 125.422 28.2008 126.394 28.1915L126.365 25.2092L126.337 22.2269C125.985 22.2303 125.872 22.1729 125.895 22.1835L124.672 24.9033ZM126.365 25.2092L126.394 28.1915C127.3 28.1828 128.282 28.0589 129.198 27.6667L128.026 24.9248L126.853 22.1829C126.893 22.1658 126.879 22.1777 126.787 22.1935C126.695 22.2091 126.549 22.2248 126.337 22.2269L126.365 25.2092ZM128.026 24.9248L129.159 27.6832C129.89 27.3821 130.573 26.966 131.209 26.4856L129.412 24.1062L127.616 21.7268C127.292 21.9713 127.051 22.101 126.892 22.1664L128.026 24.9248ZM129.412 24.1062L127.316 26.2264L130.511 29.3901L132.608 27.2698L134.703 25.1497L131.508 21.9859L129.412 24.1062ZM132.608 27.2698L130.406 25.2595C130.024 25.6786 129.528 26.0307 128.861 26.2986L129.969 29.0669L131.078 31.8351C132.512 31.2597 133.775 30.4137 134.809 29.2802L132.608 27.2698ZM129.969 29.0669L128.886 26.2886C128.278 26.526 127.406 26.6994 126.192 26.7111L126.22 29.6934L126.249 32.6757C127.967 32.6593 129.594 32.4149 131.053 31.8452L129.969 29.0669Z" fill="#18181B"/>
</g>
<path d="M54.1997 52.204L54.0195 33.4153L60.3486 33.3545L60.4821 47.2313L68.9566 47.1499L69.0037 52.0618L54.1997 52.204ZM70.564 52.0468L70.4234 37.3649L76.4847 37.3067L76.6253 51.9886L70.564 52.0468ZM73.4427 36.1548C72.3341 36.1654 71.4461 35.8787 70.7792 35.2945C70.1117 34.7104 69.7743 33.9799 69.7654 33.1031C69.757 32.2263 70.0812 31.4894 70.7369 30.8926C71.3925 30.2957 72.2751 29.992 73.3837 29.9813C74.4917 29.9707 75.3797 30.2395 76.0466 30.7879C76.7135 31.3363 77.0509 32.0489 77.0592 32.9257C77.0682 33.8561 76.7451 34.6288 76.0889 35.2435C75.4333 35.8404 74.5513 36.1441 73.4427 36.1548ZM85.0534 52.1761C83.8018 52.1881 82.5669 52.0658 81.3486 51.809C80.1304 51.5523 79.1434 51.2128 78.3883 50.7906L80.013 46.7753C80.7139 47.1802 81.5221 47.4945 82.4357 47.7184C83.3679 47.9421 84.272 48.0498 85.1481 48.0413C85.8812 48.0343 86.3723 47.9669 86.6214 47.8393C86.8885 47.7114 87.0208 47.5402 87.0184 47.3254C87.0166 47.1107 86.8628 46.9601 86.5583 46.8735C86.2531 46.7691 85.8502 46.6924 85.349 46.6435C84.8477 46.5947 84.2929 46.5374 83.6844 46.4716C83.0937 46.3878 82.4936 46.2683 81.8838 46.1131C81.2747 45.9579 80.7181 45.7217 80.2144 45.4044C79.7108 45.0871 79.3044 44.6615 78.995 44.1276C78.6857 43.5758 78.5272 42.8794 78.5194 42.0384C78.5105 41.1079 78.7793 40.2642 79.3264 39.5073C79.8914 38.7503 80.7258 38.1428 81.8302 37.6848C82.9519 37.2088 84.3352 36.9628 85.9801 36.947C87.0529 36.9367 88.1269 37.0248 89.2015 37.2114C90.2761 37.3979 91.1999 37.6932 91.9723 38.0974L90.3482 42.1127C89.5931 41.7083 88.8487 41.4381 88.1144 41.302C87.3974 41.1478 86.7263 41.0737 86.1005 41.0798C85.3317 41.0872 84.8048 41.1637 84.5199 41.3096C84.2535 41.4554 84.1206 41.6177 84.1224 41.7967C84.1248 42.0114 84.278 42.171 84.5831 42.2754C84.8883 42.3799 85.2912 42.4565 85.7924 42.5054C86.2936 42.5543 86.8396 42.6206 87.4302 42.7044C88.0387 42.7702 88.6389 42.8897 89.2307 43.0629C89.8398 43.2181 90.3965 43.4544 90.9001 43.7717C91.4043 44.0889 91.8108 44.5235 92.1201 45.0753C92.4289 45.6092 92.5874 46.2967 92.5957 47.1377C92.6041 48.0144 92.3347 48.8402 91.7882 49.615C91.241 50.3718 90.406 50.9883 89.2844 51.4644C88.1621 51.9225 86.752 52.1598 85.0534 52.1761ZM101.558 52.0176C99.5379 52.037 97.9603 51.569 96.8244 50.6135C95.689 49.6402 95.1109 48.1425 95.0918 46.1205L94.9738 33.8274L101.035 33.7692L101.153 46.0086C101.157 46.4559 101.276 46.8037 101.511 47.0521C101.763 47.3001 102.069 47.4225 102.426 47.419C102.945 47.4141 103.399 47.2755 103.79 47.0033L105.279 51.2034C104.817 51.4763 104.255 51.6785 103.595 51.8102C102.952 51.9416 102.274 52.0108 101.558 52.0176ZM93.0445 42.3821L93.0016 37.9533L104.078 37.847L104.121 42.2757L93.0445 42.3821Z" fill="white"/>
<mask id="mask1_2138_836" style="mask-type:luminance" maskUnits="userSpaceOnUse" x="51" y="27" width="58" height="29">
<path d="M108.721 27.2256H51.2446V55.2124H108.721V27.2256Z" fill="white"/>
<path d="M54.1997 52.204L54.0195 33.4153L60.3486 33.3545L60.4821 47.2313L68.9566 47.1499L69.0037 52.0618L54.1997 52.204ZM70.564 52.0468L70.4234 37.3649L76.4847 37.3067L76.6253 51.9886L70.564 52.0468ZM73.4427 36.1548C72.3341 36.1654 71.4461 35.8787 70.7792 35.2945C70.1117 34.7104 69.7743 33.9799 69.7654 33.1031C69.757 32.2263 70.0812 31.4894 70.7369 30.8926C71.3925 30.2957 72.2751 29.992 73.3837 29.9813C74.4917 29.9707 75.3797 30.2395 76.0466 30.7879C76.7135 31.3363 77.0509 32.0489 77.0592 32.9257C77.0682 33.8561 76.7451 34.6288 76.0889 35.2435C75.4333 35.8404 74.5513 36.1441 73.4427 36.1548ZM85.0534 52.1761C83.8018 52.1881 82.5669 52.0658 81.3486 51.809C80.1304 51.5523 79.1434 51.2128 78.3883 50.7906L80.013 46.7753C80.7139 47.1802 81.5221 47.4945 82.4357 47.7184C83.3679 47.9421 84.272 48.0498 85.1481 48.0413C85.8812 48.0343 86.3723 47.9669 86.6214 47.8393C86.8885 47.7114 87.0208 47.5402 87.0184 47.3254C87.0166 47.1107 86.8628 46.9601 86.5583 46.8735C86.2531 46.7691 85.8502 46.6924 85.349 46.6435C84.8477 46.5947 84.2929 46.5374 83.6844 46.4716C83.0937 46.3878 82.4936 46.2683 81.8838 46.1131C81.2747 45.9579 80.7181 45.7217 80.2144 45.4044C79.7108 45.0871 79.3044 44.6615 78.995 44.1276C78.6857 43.5758 78.5272 42.8794 78.5194 42.0384C78.5105 41.1079 78.7793 40.2642 79.3264 39.5073C79.8914 38.7503 80.7258 38.1428 81.8302 37.6848C82.9519 37.2088 84.3352 36.9628 85.9801 36.947C87.0529 36.9367 88.1269 37.0248 89.2015 37.2114C90.2761 37.3979 91.1999 37.6932 91.9723 38.0974L90.3482 42.1127C89.5931 41.7083 88.8487 41.4381 88.1144 41.302C87.3974 41.1478 86.7263 41.0737 86.1005 41.0798C85.3317 41.0872 84.8048 41.1637 84.5199 41.3096C84.2535 41.4554 84.1206 41.6177 84.1224 41.7967C84.1248 42.0114 84.278 42.171 84.5831 42.2754C84.8883 42.3799 85.2912 42.4565 85.7924 42.5054C86.2936 42.5543 86.8396 42.6206 87.4302 42.7044C88.0387 42.7702 88.6389 42.8897 89.2307 43.0629C89.8398 43.2181 90.3965 43.4544 90.9001 43.7717C91.4043 44.0889 91.8108 44.5235 92.1201 45.0753C92.4289 45.6092 92.5874 46.2967 92.5957 47.1377C92.6041 48.0144 92.3347 48.8402 91.7882 49.615C91.241 50.3718 90.406 50.9883 89.2844 51.4644C88.1621 51.9225 86.752 52.1598 85.0534 52.1761ZM101.558 52.0176C99.5379 52.037 97.9603 51.569 96.8244 50.6135C95.689 49.6402 95.1109 48.1425 95.0918 46.1205L94.9738 33.8274L101.035 33.7692L101.153 46.0086C101.157 46.4559 101.276 46.8037 101.511 47.0521C101.763 47.3001 102.069 47.4225 102.426 47.419C102.945 47.4141 103.399 47.2755 103.79 47.0033L105.279 51.2034C104.817 51.4763 104.255 51.6785 103.595 51.8102C102.952 51.9416 102.274 52.0108 101.558 52.0176ZM93.0445 42.3821L93.0016 37.9533L104.078 37.847L104.121 42.2757L93.0445 42.3821Z" fill="black"/>
</mask>
<g mask="url(#mask1_2138_836)">
<path d="M54.1997 52.204L51.8158 52.2269L51.8387 54.6127L54.2226 54.5898L54.1997 52.204ZM54.0196 33.4153L53.9967 31.0295L51.6128 31.0524L51.6357 33.4383L54.0196 33.4153ZM60.3486 33.3546L62.7326 33.3317L62.71 30.9459L60.326 30.9687L60.3486 33.3546ZM60.4821 47.2313L58.098 47.2542L58.1208 49.6401L60.5048 49.6172L60.4821 47.2313ZM68.9566 47.1499L71.3406 47.1271L71.3174 44.7412L68.934 44.7641L68.9566 47.1499ZM69.0037 52.0618L69.0264 54.4477L71.4104 54.4248L71.3877 52.0389L69.0037 52.0618ZM54.1997 52.204L56.5836 52.1811L56.4035 33.3925L54.0196 33.4153L51.6357 33.4383L51.8158 52.2269L54.1997 52.204ZM54.0196 33.4153L54.0424 35.8012L60.3718 35.7405L60.3486 33.3546L60.326 30.9687L53.9967 31.0295L54.0196 33.4153ZM60.3486 33.3546L57.9649 33.3775L58.098 47.2542L60.4821 47.2313L62.8655 47.2084L62.7326 33.3317L60.3486 33.3546ZM60.4821 47.2313L60.5048 49.6172L68.9793 49.5358L68.9566 47.1499L68.934 44.7641L60.4589 44.8455L60.4821 47.2313ZM68.9566 47.1499L66.5726 47.1728L66.6197 52.0847L69.0037 52.0618L71.3877 52.0389L71.3406 47.1271L68.9566 47.1499ZM69.0037 52.0618L68.9811 49.6759L54.1768 49.8181L54.1997 52.204L54.2226 54.5898L69.0264 54.4477L69.0037 52.0618ZM70.564 52.0468L68.18 52.0697L68.2033 54.4556L70.5873 54.4327L70.564 52.0468ZM70.4234 37.3649L70.4007 34.979L68.0167 35.0019L68.0394 37.3877L70.4234 37.3649ZM76.4847 37.3067L78.8681 37.2838L78.8455 34.8979L76.4615 34.9208L76.4847 37.3067ZM76.6254 51.9887L76.648 54.3745L79.032 54.3516L79.0094 51.9657L76.6254 51.9887ZM76.089 35.2435L77.6928 37.0088L77.7059 36.9969L77.719 36.9848L76.089 35.2435ZM70.564 52.0468L72.948 52.024L72.8074 37.342L70.4234 37.3649L68.0394 37.3877L68.18 52.0697L70.564 52.0468ZM70.4234 37.3649L70.446 39.7507L76.5074 39.6925L76.4847 37.3067L76.4615 34.9208L70.4007 34.979L70.4234 37.3649ZM76.4847 37.3067L74.1007 37.3296L74.2414 52.0115L76.6254 51.9887L79.0094 51.9657L78.8681 37.2838L76.4847 37.3067ZM76.6254 51.9887L76.6021 49.6027L70.5414 49.661L70.564 52.0468L70.5873 54.4327L76.648 54.3745L76.6254 51.9887ZM73.4427 36.1548L73.4195 33.7689C72.7442 33.7754 72.473 33.6075 72.3485 33.4987L70.7792 35.2945L69.2093 37.0903C70.4198 38.1499 71.9241 38.5554 73.4654 38.5406L73.4427 36.1548ZM70.7792 35.2945L72.3485 33.4987C72.1864 33.3564 72.1512 33.2678 72.1494 33.0802L69.7654 33.1031L67.382 33.126C67.3969 34.692 68.0376 36.0644 69.2093 37.0903L70.7792 35.2945ZM69.7654 33.1031L72.1494 33.0802C72.1476 32.8926 72.181 32.8034 72.3407 32.6579L70.7369 30.8926L69.133 29.1273C67.981 30.1755 67.3665 31.56 67.382 33.126L69.7654 33.1031ZM70.7369 30.8926L72.3407 32.6579C72.4629 32.5469 72.7305 32.3737 73.4064 32.3672L73.3837 29.9813L73.3605 27.5955C71.8192 27.6103 70.3227 28.0447 69.133 29.1273L70.7369 30.8926ZM73.3837 29.9813L73.4064 32.3672C74.1174 32.3604 74.4094 32.53 74.5328 32.6314L76.0466 30.7879L77.5599 28.9445C76.3494 27.9492 74.8666 27.5811 73.3605 27.5955L73.3837 29.9813ZM76.0466 30.7879L74.5328 32.6314C74.621 32.704 74.6413 32.7466 74.646 32.756C74.6508 32.7663 74.6741 32.8171 74.6752 32.9486L77.0593 32.9257L79.4433 32.9028C79.4284 31.3325 78.7811 29.9487 77.5599 28.9445L76.0466 30.7879ZM77.0593 32.9257L74.6752 32.9486C74.6782 33.2377 74.6091 33.3617 74.4595 33.5023L76.089 35.2435L77.719 36.9848C78.8806 35.8958 79.4582 34.4747 79.4433 32.9028L77.0593 32.9257ZM76.089 35.2435L74.4851 33.4782C74.3635 33.5893 74.0953 33.7624 73.4195 33.7689L73.4427 36.1548L73.4654 38.5406C75.0072 38.5258 76.5032 38.0914 77.6928 37.0088L76.089 35.2435ZM78.3883 50.7906L76.179 49.8951L75.3893 51.8465L77.2255 52.8734L78.3883 50.7906ZM80.013 46.7753L81.2044 44.7086L78.8312 43.3386L77.8031 45.8799L80.013 46.7753ZM82.4358 47.7184L81.869 50.036L81.8743 50.0373L81.8797 50.0386L82.4358 47.7184ZM86.6215 47.8393L85.5922 45.687L85.5636 45.7009L85.5344 45.7155L86.6215 47.8393ZM86.5583 46.8736L85.7865 49.131L85.8467 49.1516L85.9075 49.1689L86.5583 46.8736ZM83.6844 46.4716L83.35 48.834L83.3894 48.8396L83.4287 48.8438L83.6844 46.4716ZM78.9951 44.1276L76.9162 45.2949L76.924 45.3094L76.9323 45.3238L78.9951 44.1276ZM79.3264 39.5074L77.4163 38.0797L77.4055 38.0942L77.3948 38.109L79.3264 39.5074ZM81.8302 37.6849L82.7427 39.889L82.7516 39.8853L82.7606 39.8815L81.8302 37.6849ZM91.9724 38.0974L94.1823 38.9929L94.9941 36.9858L93.0768 35.9828L91.9724 38.0974ZM90.3483 42.1127L89.223 44.2163L91.5623 45.4692L92.5576 43.0082L90.3483 42.1127ZM88.1145 41.302L87.6132 43.6347L87.6466 43.6419L87.68 43.6481L88.1145 41.302ZM84.52 41.3097L83.4335 39.186L83.4055 39.2002L83.378 39.2153L84.52 41.3097ZM87.4303 42.7044L87.0959 45.0668L87.1352 45.0724L87.1746 45.0766L87.4303 42.7044ZM89.2308 43.0629L88.5615 45.3529L88.602 45.3648L88.6425 45.3752L89.2308 43.0629ZM92.1202 45.0753L90.0407 46.2426L90.0491 46.2571L90.0574 46.2715L92.1202 45.0753ZM91.7882 49.615L93.7192 51.0134L93.7276 51.0026L93.7353 50.9917L91.7882 49.615ZM89.2844 51.4644L90.185 53.6736L90.1999 53.6675L90.2148 53.6611L89.2844 51.4644ZM85.0534 52.1761L85.0308 49.7903C83.9508 49.8007 82.8881 49.6952 81.8398 49.4743L81.3487 51.809L80.8576 54.1438C82.2456 54.4364 83.6528 54.5756 85.0766 54.562L85.0534 52.1761ZM81.3487 51.809L81.8398 49.4743C80.7628 49.2473 80.0267 48.9734 79.5517 48.7077L78.3883 50.7906L77.2255 52.8734C78.2608 53.4522 79.4981 53.8573 80.8576 54.1438L81.3487 51.809ZM78.3883 50.7906L80.5983 51.6861L82.223 47.6708L80.013 46.7753L77.8031 45.8799L76.179 49.8951L78.3883 50.7906ZM80.013 46.7753L78.8216 48.842C79.7466 49.3762 80.7711 49.767 81.869 50.036L82.4358 47.7184L83.0026 45.4008C82.2731 45.2221 81.6812 44.9842 81.2044 44.7086L80.013 46.7753ZM82.4358 47.7184L81.8797 50.0386C82.9841 50.3036 84.0825 50.4377 85.1708 50.4272L85.1482 48.0414L85.1249 45.6555C84.461 45.6618 83.7517 45.5807 82.9918 45.3983L82.4358 47.7184ZM85.1482 48.0414L85.1708 50.4272C85.5952 50.4231 86.0094 50.4016 86.3896 50.3494C86.7294 50.3028 87.2276 50.2092 87.708 49.963L86.6215 47.8393L85.5344 45.7155C85.6691 45.6465 85.7644 45.621 85.7823 45.6164C85.805 45.6103 85.796 45.6144 85.7424 45.6217C85.6315 45.6369 85.4336 45.6525 85.1249 45.6555L85.1482 48.0414ZM86.6215 47.8393L87.6502 49.9917C88.3821 49.6413 89.4167 48.795 89.4024 47.3026L87.0184 47.3255L84.6344 47.3484C84.6308 46.9142 84.7769 46.4892 85.0355 46.1545C85.265 45.858 85.5075 45.7277 85.5922 45.687L86.6215 47.8393ZM87.0184 47.3255L89.4024 47.3026C89.3953 46.5612 89.0984 45.8658 88.5716 45.3482C88.1067 44.8918 87.5763 44.6825 87.2091 44.5781L86.5583 46.8736L85.9075 49.1689C85.8449 49.1511 85.5439 49.0604 85.2322 48.7547C84.8585 48.3877 84.6398 47.875 84.6344 47.3484L87.0184 47.3255ZM86.5583 46.8736L87.3301 44.6161C86.7812 44.428 86.1751 44.3268 85.5803 44.2689L85.349 46.6436L85.1178 49.0182C85.5254 49.058 85.7257 49.1102 85.7865 49.131L86.5583 46.8736ZM85.349 46.6436L85.5803 44.2689C85.0892 44.2209 84.5426 44.1645 83.9407 44.0995L83.6844 46.4716L83.4287 48.8438C84.0438 48.9103 84.607 48.9684 85.1178 49.0182L85.349 46.6436ZM83.6844 46.4716L84.0193 44.1093C83.5181 44.0382 83.0026 43.9359 82.4721 43.8009L81.8839 46.1131L81.2962 48.4254C81.9846 48.6008 82.6694 48.7375 83.35 48.834L83.6844 46.4716ZM81.8839 46.1131L82.4721 43.8009C82.0901 43.7036 81.7659 43.5623 81.4845 43.3851L80.2145 45.4044L78.9444 47.4237C79.6703 47.881 80.4594 48.2123 81.2962 48.4254L81.8839 46.1131ZM80.2145 45.4044L81.4845 43.3851C81.3195 43.2813 81.1806 43.1432 81.0578 42.9314L78.9951 44.1276L76.9323 45.3238C77.4282 46.1799 78.1017 46.8929 78.9444 47.4237L80.2145 45.4044ZM78.9951 44.1276L81.0745 42.9603C81.0155 42.8547 80.9088 42.5828 80.9029 42.0155L78.5195 42.0384L76.1355 42.0613C76.1462 43.176 76.3566 44.297 76.9162 45.2949L78.9951 44.1276ZM78.5195 42.0384L80.9029 42.0155C80.8993 41.5971 81.0084 41.2512 81.2581 40.9058L79.3264 39.5074L77.3948 38.109C76.5503 39.2773 76.1217 40.6187 76.1355 42.0613L78.5195 42.0384ZM79.3264 39.5074L81.2366 40.9351C81.4851 40.6022 81.931 40.2258 82.7427 39.889L81.8302 37.6849L80.9172 35.4806C79.5207 36.0598 78.2977 36.8985 77.4163 38.0797L79.3264 39.5074ZM81.8302 37.6849L82.7606 39.8815C83.5139 39.5619 84.5677 39.3467 86.0034 39.3329L85.9802 36.9471L85.9575 34.5612C84.1034 34.579 82.3905 34.8556 80.8993 35.4882L81.8302 37.6849ZM85.9802 36.9471L86.0034 39.3329C86.9296 39.324 87.8594 39.4 88.7939 39.5622L89.2016 37.2114L89.6086 34.8605C88.3946 34.6497 87.1769 34.5495 85.9575 34.5612L85.9802 36.9471ZM89.2016 37.2114L88.7939 39.5622C89.6837 39.7167 90.3614 39.9467 90.8686 40.2121L91.9724 38.0974L93.0768 35.9828C92.0385 35.4398 90.8686 35.0791 89.6086 34.8605L89.2016 37.2114ZM91.9724 38.0974L89.763 37.202L88.1383 41.2173L90.3483 42.1127L92.5576 43.0082L94.1823 38.9929L91.9724 38.0974ZM90.3483 42.1127L91.4729 40.0091C90.533 39.5055 89.5562 39.1428 88.5483 38.9559L88.1145 41.302L87.68 43.6481C88.1407 43.7334 88.6538 43.9113 89.223 44.2163L90.3483 42.1127ZM88.1145 41.302L88.6151 38.9693C87.7551 38.7842 86.9064 38.6859 86.0773 38.6939L86.1006 41.0798L86.1232 43.4656C86.5464 43.4616 87.0399 43.5114 87.6132 43.6347L88.1145 41.302ZM86.1006 41.0798L86.0773 38.6939C85.6285 38.6982 85.1905 38.7228 84.7858 38.7816C84.4115 38.8361 83.9127 38.9403 83.4335 39.186L84.52 41.3097L85.6065 43.4334C85.495 43.4907 85.4193 43.5116 85.4092 43.5144C85.3955 43.5182 85.4128 43.5125 85.4718 43.5039C85.594 43.4861 85.8032 43.4687 86.1232 43.4656L86.1006 41.0798ZM84.52 41.3097L83.378 39.2153C82.903 39.4747 81.7235 40.2628 81.7384 41.8196L84.1224 41.7967L86.5065 41.7738C86.5118 42.3354 86.2895 42.7773 86.0666 43.0505C85.8711 43.2898 85.6875 43.3904 85.6619 43.4041L84.52 41.3097ZM84.1224 41.7967L81.7384 41.8196C81.7456 42.5572 82.0376 43.2289 82.5216 43.7323C82.9537 44.1813 83.4519 44.4099 83.8113 44.5329L84.5832 42.2754L85.355 40.018C85.4092 40.0366 85.678 40.1332 85.9563 40.4226C86.2871 40.7663 86.5017 41.251 86.5065 41.7738L84.1224 41.7967ZM84.5832 42.2754L83.8113 44.5329C84.3603 44.7209 84.9664 44.8222 85.5612 44.8801L85.7924 42.5055L86.0237 40.1307C85.616 40.091 85.4158 40.0388 85.355 40.018L84.5832 42.2754ZM85.7924 42.5055L85.5612 44.8801C86.0219 44.9251 86.5333 44.987 87.0959 45.0668L87.4303 42.7044L87.7646 40.3421C87.1454 40.2543 86.5649 40.1835 86.0237 40.1307L85.7924 42.5055ZM87.4303 42.7044L87.1746 45.0766C87.6418 45.1272 88.1037 45.219 88.5615 45.3529L89.2308 43.0629L89.9001 40.773C89.1741 40.5604 88.4357 40.4132 87.6859 40.3323L87.4303 42.7044ZM89.2308 43.0629L88.6425 45.3752C89.0245 45.4725 89.3494 45.6138 89.6307 45.791L90.9002 43.7717L92.1702 41.7524C91.4443 41.2951 90.6558 40.9638 89.8184 40.7507L89.2308 43.0629ZM90.9002 43.7717L89.6307 45.791C89.7767 45.8831 89.9132 46.0156 90.0407 46.2426L92.1202 45.0753L94.199 43.908C93.7079 43.0314 93.0315 42.2949 92.1702 41.7524L90.9002 43.7717ZM92.1202 45.0753L90.0574 46.2715C90.0979 46.3423 90.2064 46.5885 90.2118 47.1606L92.5958 47.1377L94.9798 47.1148C94.9691 46.0048 94.7599 44.8761 94.1829 43.8791L92.1202 45.0753ZM92.5958 47.1377L90.2118 47.1606C90.2148 47.4949 90.1236 47.8373 89.8411 48.2383L91.7882 49.615L93.7353 50.9917C94.5459 49.8432 94.9929 48.534 94.9798 47.1148L92.5958 47.1377ZM91.7882 49.615L89.8566 48.2166C89.6307 48.5288 89.195 48.9107 88.354 49.2677L89.2844 51.4644L90.2148 53.6611C91.6177 53.066 92.8509 52.215 93.7192 51.0134L91.7882 49.615ZM89.2844 51.4644L88.3838 49.2552C87.6281 49.5637 86.5398 49.7758 85.0308 49.7903L85.0534 52.1761L85.0766 54.562C86.9642 54.5438 88.6962 54.2814 90.185 53.6736L89.2844 51.4644ZM96.8244 50.6136L95.2742 52.4259L95.282 52.433L95.2903 52.4399L96.8244 50.6136ZM94.9738 33.8274L94.9512 31.4416L92.5672 31.4644L92.5898 33.8503L94.9738 33.8274ZM101.035 33.7692L103.419 33.7463L103.396 31.3604L101.012 31.3833L101.035 33.7692ZM101.511 47.0521L99.7794 48.6923L99.8098 48.7244L99.8414 48.7553L101.511 47.0521ZM103.79 47.0034L106.037 46.2057L104.993 43.2589L102.429 45.045L103.79 47.0034ZM105.279 51.2034L106.49 53.2586L108.183 52.2595L107.526 50.4058L105.279 51.2034ZM103.595 51.8102L103.129 49.4701L103.124 49.4713L103.118 49.4725L103.595 51.8102ZM93.0446 42.3821L90.6606 42.405L90.6832 44.7908L93.0672 44.7679L93.0446 42.3821ZM93.0017 37.9533L92.979 35.5675L90.595 35.5904L90.6183 37.9762L93.0017 37.9533ZM104.078 37.847L106.462 37.8241L106.439 35.4382L104.055 35.4611L104.078 37.847ZM104.121 42.2757L104.143 44.6616L106.527 44.6387L106.505 42.2528L104.121 42.2757ZM101.558 52.0176L101.536 49.6318C99.8777 49.6477 98.9229 49.2621 98.3585 48.7872L96.8244 50.6136L95.2903 52.4399C96.9972 53.8759 99.1983 54.4264 101.582 54.4035L101.558 52.0176ZM96.8244 50.6136L98.3752 48.8012C97.9282 48.4184 97.4907 47.685 97.4758 46.0976L95.0918 46.1205L92.7078 46.1434C92.7317 48.6 93.4493 50.862 95.2742 52.4259L96.8244 50.6136ZM95.0918 46.1205L97.4758 46.0976L97.3578 33.8045L94.9738 33.8274L92.5898 33.8503L92.7078 46.1434L95.0918 46.1205ZM94.9738 33.8274L94.9971 36.2132L101.058 36.155L101.035 33.7692L101.012 31.3833L94.9512 31.4416L94.9738 33.8274ZM101.035 33.7692L98.6511 33.7921L98.7685 46.0315L101.153 46.0086L103.536 45.9857L103.419 33.7463L101.035 33.7692ZM101.153 46.0086L98.7685 46.0315C98.7769 46.89 99.0165 47.8852 99.7794 48.6923L101.511 47.0521L103.242 45.4119C103.376 45.5534 103.457 45.7054 103.5 45.8288C103.539 45.9433 103.537 46.0065 103.536 45.9857L101.153 46.0086ZM101.511 47.0521L99.8414 48.7553C100.551 49.4516 101.467 49.8144 102.449 49.805L102.426 47.419L102.404 45.0332C102.508 45.0322 102.655 45.0505 102.816 45.115C102.978 45.1798 103.1 45.2694 103.181 45.3488L101.511 47.0521ZM102.426 47.419L102.449 49.805C103.402 49.7958 104.333 49.5323 105.152 48.9617L103.79 47.0034L102.429 45.045C102.431 45.043 102.437 45.0396 102.444 45.036C102.451 45.0324 102.458 45.0302 102.461 45.029C102.466 45.0278 102.464 45.0286 102.455 45.0299C102.447 45.0311 102.43 45.033 102.404 45.0332L102.426 47.419ZM103.79 47.0034L101.544 47.801L103.032 52.0011L105.279 51.2034L107.526 50.4058L106.037 46.2057L103.79 47.0034ZM105.279 51.2034L104.068 49.1483C103.886 49.2553 103.591 49.3782 103.129 49.4701L103.595 51.8102L104.06 54.1502C104.92 53.979 105.747 53.6973 106.49 53.2586L105.279 51.2034ZM103.595 51.8102L103.118 49.4725C102.638 49.5708 102.112 49.6262 101.536 49.6318L101.558 52.0176L101.582 54.4035C102.436 54.3953 103.268 54.3125 104.072 54.1478L103.595 51.8102ZM93.0446 42.3821L95.428 42.3592L95.3857 37.9305L93.0017 37.9533L90.6183 37.9762L90.6606 42.405L93.0446 42.3821ZM93.0017 37.9533L93.0249 40.3392L104.101 40.2328L104.078 37.847L104.055 35.4611L92.979 35.5675L93.0017 37.9533ZM104.078 37.847L101.694 37.8699L101.737 42.2986L104.121 42.2757L106.505 42.2528L106.462 37.8241L104.078 37.847ZM104.121 42.2757L104.097 39.8899L93.0213 39.9963L93.0446 42.3821L93.0672 44.7679L104.143 44.6616L104.121 42.2757Z" fill="#18181B"/>
</g>
<path d="M22.35 41.3816V34.0746H25.032V41.3816H22.35ZM19.8915 38.9956V36.4605H27.4905V38.9956H19.8915Z" fill="white"/>
</svg>
